<svg width="46" height="46" viewBox="0 0 46 46" fill="none" xmlns="http://www.w3.org/2000/svg">
<circle cx="23" cy="23" r="23" fill="#8BC43F"/>
<path d="M26.5387 17.5218C26.8269 17.2243 26.8194 16.7495 26.5219 16.4613C26.2244 16.1731 25.7496 16.1806 25.4614 16.4782L26.5387 17.5218ZM20 23.1935L19.4614 22.6717L18.9392 23.2107L19.4785 23.7325L20 23.1935ZM25.4785 29.539C25.7761 29.827 26.2509 29.8192 26.539 29.5216C26.827 29.2239 26.8193 28.7491 26.5216 28.461L25.4785 29.539ZM25.4614 16.4782L19.4614 22.6717L20.5387 23.7154L26.5387 17.5218L25.4614 16.4782ZM19.4785 23.7325L25.4785 29.539L26.5216 28.461L20.5216 22.6546L19.4785 23.7325Z" fill="white"/>
</svg>
