<svg width="46" height="46" viewBox="0 0 46 46" fill="none" xmlns="http://www.w3.org/2000/svg">
<circle cx="23" cy="23" r="23" transform="rotate(-180 23 23)" fill="#F6931E"/>
<path d="M20.4613 28.4782C20.1731 28.7757 20.1806 29.2505 20.4782 29.5387C20.7757 29.8269 21.2505 29.8194 21.5387 29.5218L20.4613 28.4782ZM27 22.8065L27.5387 23.3283L28.0608 22.7893L27.5216 22.2675L27 22.8065ZM21.5216 16.461C21.2239 16.173 20.7491 16.1808 20.461 16.4784C20.173 16.7761 20.1808 17.2509 20.4784 17.539L21.5216 16.461ZM21.5387 29.5218L27.5387 23.3283L26.4613 22.2846L20.4613 28.4782L21.5387 29.5218ZM27.5216 22.2675L21.5216 16.461L20.4784 17.539L26.4784 23.3454L27.5216 22.2675Z" fill="white"/>
</svg>
